<?xml version="1.0" encoding="utf-8"?>
<!-- Generator: Adobe Illustrator 24.3.0, SVG Export Plug-In . SVG Version: 6.00 Build 0)  -->
<svg version="1.1" id="Layer_1" xmlns="http://www.w3.org/2000/svg" xmlns:xlink="http://www.w3.org/1999/xlink" x="0px" y="0px"
	 viewBox="0 0 654.05 595.28" style="enable-background:new 0 0 654.05 595.28;" xml:space="preserve">
<style type="text/css">
	.st0{fill:#3189A7;}
	.st1{fill:#000014;}
</style>
<ellipse class="st0" cx="321.9" cy="299.09" rx="285.82" ry="286.28"/>
<path class="st1" d="M382.84,86.38c-14.23-4.1-29.04,4.18-33.14,18.41L242.56,479.76c-4.1,14.23,4.18,29.04,18.41,33.14
	c14.23,4.1,29.04-4.18,33.14-18.41l107.13-374.97C405.35,105.29,397.07,90.48,382.84,86.38z M450.3,186.9
	c-10.46,10.46-10.46,27.45,0,37.92l74.74,74.83l-74.83,74.83c-10.46,10.46-10.46,27.45,0,37.92c10.46,10.46,27.45,10.46,37.92,0
	l93.74-93.74c10.46-10.46,10.46-27.45,0-37.92l-93.74-93.74c-10.46-10.46-27.45-10.46-37.92,0L450.3,186.9z M193.6,186.9
	c-10.46-10.46-27.45-10.46-37.92,0l-93.74,93.74c-10.46,10.46-10.46,27.45,0,37.92l93.74,93.74c10.46,10.46,27.45,10.46,37.92,0
	c10.46-10.46,10.46-27.45,0-37.92l-74.83-74.74l74.83-74.83C204.06,214.35,204.06,197.36,193.6,186.9z"/>
</svg>
